<svg xmlns="http://www.w3.org/2000/svg" viewBox="0 0 36.86 36.9"><defs><style>.cls-1,.cls-3{fill:#fff;}.cls-1,.cls-2,.cls-3{stroke:#00265a;stroke-miterlimit:10;stroke-width:1.25px;}.cls-2,.cls-3{stroke-linecap:round;}</style></defs><g id="Layer_2" data-name="Layer 2"><g id="Layer_2-2" data-name="Layer 2"><circle class="cls-1" cx="16.17" cy="15.64" r="7.65"/><line class="cls-2" x1="16.54" y1="24.82" x2="16.54" y2="29.68"/><line class="cls-2" x1="26.1" y1="15.45" x2="30.98" y2="15.45"/><line class="cls-2" x1="0.73" y1="15.45" x2="6.22" y2="15.45"/><line class="cls-2" x1="16.54" y1="0.63" x2="16.54" y2="6.16"/><line class="cls-2" x1="23.36" y1="22.64" x2="25.54" y2="24.82"/><line class="cls-2" x1="7.09" y1="6.52" x2="9.27" y2="8.7"/><line class="cls-2" x1="9.31" y1="22.24" x2="7.05" y2="24.33"/><line class="cls-2" x1="25.3" y1="7.08" x2="23.04" y2="9.17"/><path class="cls-3" d="M6.31,36.28H29.67A2.28,2.28,0,0,0,30.75,36c1.7-.91,8.88-6,3.53-12.48a11,11,0,0,0-.87-.87s2.09-4.77-3.21-8.61-13.08,1.21-14.29,2.79c0,0-4-2.48-8-.09a5.87,5.87,0,0,0-2.73,6.61,4.56,4.56,0,0,0-4.5,4.15c-.37,3.43,4.12,8.77,4.78,8.77Z"/></g></g></svg>