<svg xmlns="http://www.w3.org/2000/svg" viewBox="0 0 36.86 36.22"><defs><style>.cls-1{fill:#fff;stroke-width:1.25px;}.cls-1,.cls-3{stroke:#00265a;stroke-linecap:round;stroke-miterlimit:10;}.cls-2{fill:#00265a;}</style></defs><g id="Layer_2" data-name="Layer 2"><g id="Layer_1-2" data-name="Layer 1"><path class="cls-1" d="M6.31,24.31H29.67A2.28,2.28,0,0,0,30.75,24c1.7-.9,8.88-6,3.53-12.47a10.05,10.05,0,0,0-.87-.88S35.5,5.92,30.2,2.08,17.12,3.29,15.91,4.88c0,0-4-2.49-8-.1a5.87,5.87,0,0,0-2.73,6.61,4.56,4.56,0,0,0-4.5,4.15C.28,19,4.77,24.31,5.43,24.31Z"/><polygon class="cls-2" points="19.5 29.05 14.67 28.75 16.6 25.39 20.52 25.2 18.87 27.45 22.89 27.82 17.1 33.55 19.5 29.05"/><path class="cls-2" d="M19.49,25.75l-.5.69-1,1.43L19.7,28l2.08.19-2.69,2.66.48-.91.73-1.37-1.55-.1-3.24-.2,1.39-2.42,2.59-.13m2.05-1.1Zm0,0-5.23.26L13.84,29.2l4.85.3-3.58,6.72,8.9-8.8L19.79,27l1.75-2.38Z"/><line class="cls-3" x1="8.82" y1="26.82" x2="8.82" y2="30.44"/><line class="cls-3" x1="8.82" y1="32.22" x2="8.82" y2="34.39"/><line class="cls-3" x1="29.03" y1="27.2" x2="29.03" y2="29.29"/><line class="cls-3" x1="29.03" y1="31.33" x2="29.03" y2="34.95"/><line class="cls-3" x1="24.01" y1="31.38" x2="24.01" y2="33.07"/><line class="cls-3" x1="13.84" y1="31.13" x2="13.84" y2="32.81"/></g></g></svg>